<?xml version="1.0" encoding="UTF-8" standalone="no"?>
<!-- Created with Inkscape (http://www.inkscape.org/) -->
<svg
   xmlns:dc="http://purl.org/dc/elements/1.1/"
   xmlns:cc="http://web.resource.org/cc/"
   xmlns:rdf="http://www.w3.org/1999/02/22-rdf-syntax-ns#"
   xmlns:svg="http://www.w3.org/2000/svg"
   xmlns="http://www.w3.org/2000/svg"
   xmlns:sodipodi="http://inkscape.sourceforge.net/DTD/sodipodi-0.dtd"
   xmlns:inkscape="http://www.inkscape.org/namespaces/inkscape"
   width="744.09448819"
   height="1052.3622047"
   id="svg2"
   sodipodi:version="0.32"
   inkscape:version="0.42+devel"
   sodipodi:docbase="/home/niels/GOFFICE/Software/Images"
   sodipodi:docname="ali_down_collapse.svg"
   inkscape:export-filename="/home/niels/GOFFICE/Software/Images/ali_up_collapse.gif"
   inkscape:export-xdpi="90.000000"
   inkscape:export-ydpi="90.000000">
  <defs
     id="defs4" />
  <sodipodi:namedview
     id="base"
     pagecolor="#ffffff"
     bordercolor="#666666"
     borderopacity="1.0"
     inkscape:pageopacity="0.0"
     inkscape:pageshadow="2"
     inkscape:zoom="12.545313"
     inkscape:cx="418.30375"
     inkscape:cy="686.43949"
     inkscape:document-units="px"
     inkscape:current-layer="layer1"
     showgrid="true"
     inkscape:window-width="1249"
     inkscape:window-height="1036"
     inkscape:window-x="343"
     inkscape:window-y="57" />
  <metadata
     id="metadata7">
    <rdf:RDF>
      <cc:Work
         rdf:about="">
        <dc:format>image/svg+xml</dc:format>
        <dc:type
           rdf:resource="http://purl.org/dc/dcmitype/StillImage" />
      </cc:Work>
    </rdf:RDF>
  </metadata>
  <g
     inkscape:label="Layer 1"
     inkscape:groupmode="layer"
     id="layer1">
    <rect
       style="fill:#efefef;fill-opacity:1.0000000;stroke:#acacac;stroke-width:2.1314659;stroke-linecap:round;stroke-linejoin:round;stroke-miterlimit:4.0000000;stroke-dasharray:none;stroke-opacity:0.99607843"
       id="rect2037"
       width="24.922310"
       height="17.498859"
       x="-378.89935"
       y="408.78607"
       inkscape:export-filename="/home/niels/GOFFICE/Software/Images/test.png"
       inkscape:export-xdpi="90.000000"
       inkscape:export-ydpi="90.000000"
       transform="matrix(-1.634131e-3,-0.999999,1.000000,-3.079053e-4,0.000000,0.000000)" />
    <g
       id="g2080"
       transform="matrix(-0.999987,5.059457e-3,-5.059457e-3,-0.999987,822.0949,728.6570)">
      <path
         inkscape:export-ydpi="90.000000"
         inkscape:export-xdpi="90.000000"
         inkscape:export-filename="/home/niels/GOFFICE/Software/Images/test.png"
         id="path6454"
         d="M 406.02594,361.63869 C 398.45210,361.60836 398.45212,361.60673 398.45212,361.60673 L 398.45212,361.60673"
         style="fill:none;fill-opacity:0.75000000;fill-rule:evenodd;stroke:#666666;stroke-width:2.4890883;stroke-linecap:round;stroke-linejoin:miter;stroke-miterlimit:10.200000;stroke-dasharray:none;stroke-opacity:1.0000000" />
      <path
         inkscape:export-ydpi="90.000000"
         inkscape:export-xdpi="90.000000"
         inkscape:export-filename="/home/niels/GOFFICE/Software/Images/test.png"
         id="path6456"
         d="M 406.07647,361.19769 C 402.34179,357.00295 402.34276,357.00223 402.34276,357.00223 L 402.34276,357.00223"
         style="fill:none;fill-opacity:0.75000000;fill-rule:evenodd;stroke:#666666;stroke-width:1.8470557;stroke-linecap:round;stroke-linejoin:miter;stroke-miterlimit:10.200000;stroke-dasharray:none;stroke-opacity:1.0000000" />
      <path
         inkscape:export-ydpi="90.000000"
         inkscape:export-xdpi="90.000000"
         inkscape:export-filename="/home/niels/GOFFICE/Software/Images/test.png"
         id="path6458"
         d="M 402.07762,356.85369 C 398.25700,361.26444 398.25620,361.26343 398.25620,361.26343 L 398.25620,361.26343"
         style="fill:none;fill-opacity:0.75000000;fill-rule:evenodd;stroke:#666666;stroke-width:1.9341043;stroke-linecap:round;stroke-linejoin:miter;stroke-miterlimit:10.200000;stroke-dasharray:none;stroke-opacity:1.0000000" />
      <path
         inkscape:export-filename="/home/niels/GOFFICE/Software/Images/test.png"
         inkscape:export-ydpi="90.000000"
         inkscape:export-xdpi="90.000000"
         id="path6460"
         d="M 405.36374,360.79530 C 405.36380,360.69903 405.30059,360.42129 405.22658,360.23719 C 405.13695,360.01416 404.96296,359.77491 404.77609,359.60811 C 404.47695,359.34111 404.27281,359.00712 403.96337,358.73365 C 403.74680,358.54225 403.59687,358.32507 403.42295,358.12331 C 403.31684,358.00025 403.17289,357.85885 403.02448,357.75414 C 402.82946,357.61656 402.67937,357.46679 402.48505,357.36865 C 402.32797,357.28932 402.18711,357.29776 401.99747,357.29701 C 401.79372,357.29619 401.49323,357.54780 401.36853,357.71266 C 401.20532,357.92850 401.03786,358.12543 400.91287,358.37296 C 400.80974,358.57718 400.66373,358.76256 400.56201,358.96398 C 400.46414,359.15782 400.19776,359.32447 400.00235,359.48446 C 399.82733,359.62780 399.71231,359.86714 399.54705,360.05629 C 399.36547,360.26414 399.36414,360.65694 399.29969,360.91044 C 399.22181,361.21669 399.41079,361.40017 399.61066,361.57380 C 399.75539,361.69950 399.98757,361.66083 400.16789,361.66156 C 400.47450,361.66280 400.81389,361.64505 401.12340,361.61470 C 401.47537,361.58018 401.91870,361.60719 402.25875,361.66994 C 402.63311,361.73901 403.13816,361.78613 403.51319,361.69395 C 403.74354,361.63734 404.07601,361.64578 404.31489,361.64675 C 404.52900,361.64760 404.73709,361.57813 404.92643,361.52537 C 405.09241,361.47914 405.21842,361.44167 405.36165,361.31801 C 405.49846,361.19992 405.39894,361.04206 405.36304,360.96953 C 405.30600,360.85429 405.27656,360.64880 405.29518,360.51625"
         style="fill:#666666;fill-opacity:1.0000000;fill-rule:evenodd;stroke:#666666;stroke-width:0.034848001px;stroke-linecap:butt;stroke-linejoin:miter;stroke-opacity:1.0000000" />
    </g>
    <g
       id="g2086"
       transform="matrix(-0.999987,5.059457e-3,-5.059457e-3,-0.999987,807.0594,741.2452)">
      <path
         inkscape:export-ydpi="90.000000"
         inkscape:export-xdpi="90.000000"
         inkscape:export-filename="/home/niels/GOFFICE/Software/Images/test.png"
         id="path2072"
         d="M 390.73679,382.19316 C 383.16295,382.16283 383.16297,382.16120 383.16297,382.16120 L 383.16297,382.16120"
         style="fill:none;fill-opacity:0.75000000;fill-rule:evenodd;stroke:#666666;stroke-width:2.4890883;stroke-linecap:round;stroke-linejoin:miter;stroke-miterlimit:10.200000;stroke-dasharray:none;stroke-opacity:1.0000000" />
      <path
         inkscape:export-ydpi="90.000000"
         inkscape:export-xdpi="90.000000"
         inkscape:export-filename="/home/niels/GOFFICE/Software/Images/test.png"
         id="path2074"
         d="M 390.78732,381.75216 C 387.05264,377.55742 387.05361,377.55670 387.05361,377.55670 L 387.05361,377.55670"
         style="fill:none;fill-opacity:0.75000000;fill-rule:evenodd;stroke:#666666;stroke-width:1.8470557;stroke-linecap:round;stroke-linejoin:miter;stroke-miterlimit:10.200000;stroke-dasharray:none;stroke-opacity:1.0000000" />
      <path
         inkscape:export-ydpi="90.000000"
         inkscape:export-xdpi="90.000000"
         inkscape:export-filename="/home/niels/GOFFICE/Software/Images/test.png"
         id="path2076"
         d="M 386.78847,377.40816 C 382.96785,381.81891 382.96705,381.81790 382.96705,381.81790 L 382.96705,381.81790"
         style="fill:none;fill-opacity:0.75000000;fill-rule:evenodd;stroke:#666666;stroke-width:1.9341043;stroke-linecap:round;stroke-linejoin:miter;stroke-miterlimit:10.200000;stroke-dasharray:none;stroke-opacity:1.0000000" />
      <path
         inkscape:export-filename="/home/niels/GOFFICE/Software/Images/test.png"
         inkscape:export-ydpi="90.000000"
         inkscape:export-xdpi="90.000000"
         id="path2078"
         d="M 390.07459,381.34977 C 390.07465,381.25350 390.01144,380.97576 389.93743,380.79166 C 389.84780,380.56863 389.67381,380.32938 389.48694,380.16258 C 389.18780,379.89558 388.98366,379.56159 388.67422,379.28812 C 388.45765,379.09672 388.30772,378.87954 388.13380,378.67778 C 388.02769,378.55472 387.88374,378.41332 387.73533,378.30861 C 387.54031,378.17103 387.39022,378.02126 387.19590,377.92312 C 387.03882,377.84379 386.89796,377.85223 386.70832,377.85148 C 386.50457,377.85066 386.20408,378.10227 386.07938,378.26713 C 385.91617,378.48297 385.74871,378.67990 385.62372,378.92743 C 385.52059,379.13165 385.37458,379.31703 385.27286,379.51845 C 385.17499,379.71229 384.90861,379.87894 384.71320,380.03893 C 384.53818,380.18227 384.42316,380.42161 384.25790,380.61076 C 384.07632,380.81861 384.07499,381.21141 384.01054,381.46491 C 383.93266,381.77116 384.12164,381.95464 384.32151,382.12827 C 384.46624,382.25397 384.69842,382.21530 384.87874,382.21603 C 385.18535,382.21727 385.52474,382.19952 385.83425,382.16917 C 386.18622,382.13465 386.62955,382.16166 386.96960,382.22441 C 387.34396,382.29348 387.84901,382.34060 388.22404,382.24842 C 388.45439,382.19181 388.78686,382.20025 389.02574,382.20122 C 389.23985,382.20207 389.44794,382.13260 389.63728,382.07984 C 389.80326,382.03361 389.92927,381.99614 390.07250,381.87248 C 390.20931,381.75439 390.10979,381.59653 390.07389,381.52400 C 390.01685,381.40876 389.98741,381.20327 390.00603,381.07072"
         style="fill:#666666;fill-opacity:1.0000000;fill-rule:evenodd;stroke:#666666;stroke-width:0.034848001px;stroke-linecap:butt;stroke-linejoin:miter;stroke-opacity:1.0000000" />
    </g>
  </g>
</svg>
