<?xml version="1.0" encoding="UTF-8" standalone="no"?>
<!-- Created with Inkscape (http://www.inkscape.org/) -->
<svg
   xmlns:dc="http://purl.org/dc/elements/1.1/"
   xmlns:cc="http://web.resource.org/cc/"
   xmlns:rdf="http://www.w3.org/1999/02/22-rdf-syntax-ns#"
   xmlns:svg="http://www.w3.org/2000/svg"
   xmlns="http://www.w3.org/2000/svg"
   xmlns:sodipodi="http://inkscape.sourceforge.net/DTD/sodipodi-0.dtd"
   xmlns:inkscape="http://www.inkscape.org/namespaces/inkscape"
   width="744.09448819"
   height="1052.3622047"
   id="svg2"
   sodipodi:version="0.32"
   inkscape:version="0.42+devel"
   sodipodi:docbase="/home/niels/GOFFICE/Software/Images"
   sodipodi:docname="ali_end_rows.svg"
   inkscape:export-filename="/home/niels/GOFFICE/Software/Images/ali_bottom.png"
   inkscape:export-xdpi="90.000000"
   inkscape:export-ydpi="90.000000">
  <defs
     id="defs4" />
  <sodipodi:namedview
     id="base"
     pagecolor="#ffffff"
     bordercolor="#666666"
     borderopacity="1.0"
     inkscape:pageopacity="0.0"
     inkscape:pageshadow="2"
     inkscape:zoom="12.545313"
     inkscape:cx="418.30375"
     inkscape:cy="685.55799"
     inkscape:document-units="px"
     inkscape:current-layer="layer1"
     showgrid="true"
     inkscape:window-width="1249"
     inkscape:window-height="1036"
     inkscape:window-x="343"
     inkscape:window-y="57" />
  <metadata
     id="metadata7">
    <rdf:RDF>
      <cc:Work
         rdf:about="">
        <dc:format>image/svg+xml</dc:format>
        <dc:type
           rdf:resource="http://purl.org/dc/dcmitype/StillImage" />
      </cc:Work>
    </rdf:RDF>
  </metadata>
  <g
     inkscape:label="Layer 1"
     inkscape:groupmode="layer"
     id="layer1">
    <rect
       style="fill:#ffffdd;fill-opacity:1.0000000;stroke:#acacac;stroke-width:2.4377880;stroke-linecap:round;stroke-linejoin:round;stroke-miterlimit:4.0000000;stroke-dasharray:none;stroke-opacity:0.99607843"
       id="rect2037"
       width="18.375662"
       height="17.942469"
       x="-427.66360"
       y="-372.81879"
       inkscape:export-filename="/home/niels/GOFFICE/Software/Images/ali_end_rows.gif"
       inkscape:export-xdpi="90.000000"
       inkscape:export-ydpi="90.000000"
       transform="matrix(-1.000000,-3.134277e-4,1.383596e-3,-0.999999,0.000000,0.000000)" />
    <path
       style="fill:none;fill-opacity:0.75000000;fill-rule:evenodd;stroke:#666666;stroke-width:2.4890878;stroke-linecap:round;stroke-linejoin:miter;stroke-miterlimit:10.200000;stroke-dasharray:none;stroke-opacity:1.0000000"
       d="M 421.34696,367.95978 C 421.35443,360.38588 421.35606,360.38590 421.35606,360.38590 L 421.35606,360.38590"
       id="path6454"
       inkscape:export-filename="/home/niels/GOFFICE/Software/Images/test.png"
       inkscape:export-xdpi="90.000000"
       inkscape:export-ydpi="90.000000" />
    <g
       id="g2086"
       transform="matrix(3.017644e-3,0.999995,-0.999995,3.017644e-3,795.4137,-23.84315)">
      <path
         inkscape:export-ydpi="90.000000"
         inkscape:export-xdpi="90.000000"
         inkscape:export-filename="/home/niels/GOFFICE/Software/Images/test.png"
         id="path2072"
         d="M 390.73679,382.19316 C 383.16295,382.16283 383.16297,382.16120 383.16297,382.16120 L 383.16297,382.16120"
         style="fill:none;fill-opacity:0.75000000;fill-rule:evenodd;stroke:#666666;stroke-width:2.4890883;stroke-linecap:round;stroke-linejoin:miter;stroke-miterlimit:10.200000;stroke-dasharray:none;stroke-opacity:1.0000000" />
      <path
         inkscape:export-ydpi="90.000000"
         inkscape:export-xdpi="90.000000"
         inkscape:export-filename="/home/niels/GOFFICE/Software/Images/test.png"
         id="path2074"
         d="M 390.78732,381.75216 C 387.05264,377.55742 387.05361,377.55670 387.05361,377.55670 L 387.05361,377.55670"
         style="fill:none;fill-opacity:0.75000000;fill-rule:evenodd;stroke:#666666;stroke-width:1.8470557;stroke-linecap:round;stroke-linejoin:miter;stroke-miterlimit:10.200000;stroke-dasharray:none;stroke-opacity:1.0000000" />
      <path
         inkscape:export-ydpi="90.000000"
         inkscape:export-xdpi="90.000000"
         inkscape:export-filename="/home/niels/GOFFICE/Software/Images/test.png"
         id="path2076"
         d="M 386.78847,377.40816 C 382.96785,381.81891 382.96705,381.81790 382.96705,381.81790 L 382.96705,381.81790"
         style="fill:none;fill-opacity:0.75000000;fill-rule:evenodd;stroke:#666666;stroke-width:1.9341043;stroke-linecap:round;stroke-linejoin:miter;stroke-miterlimit:10.200000;stroke-dasharray:none;stroke-opacity:1.0000000" />
      <path
         inkscape:export-filename="/home/niels/GOFFICE/Software/Images/test.png"
         inkscape:export-ydpi="90.000000"
         inkscape:export-xdpi="90.000000"
         id="path2078"
         d="M 390.07459,381.34977 C 390.07465,381.25350 390.01144,380.97576 389.93743,380.79166 C 389.84780,380.56863 389.67381,380.32938 389.48694,380.16258 C 389.18780,379.89558 388.98366,379.56159 388.67422,379.28812 C 388.45765,379.09672 388.30772,378.87954 388.13380,378.67778 C 388.02769,378.55472 387.88374,378.41332 387.73533,378.30861 C 387.54031,378.17103 387.39022,378.02126 387.19590,377.92312 C 387.03882,377.84379 386.89796,377.85223 386.70832,377.85148 C 386.50457,377.85066 386.20408,378.10227 386.07938,378.26713 C 385.91617,378.48297 385.74871,378.67990 385.62372,378.92743 C 385.52059,379.13165 385.37458,379.31703 385.27286,379.51845 C 385.17499,379.71229 384.90861,379.87894 384.71320,380.03893 C 384.53818,380.18227 384.42316,380.42161 384.25790,380.61076 C 384.07632,380.81861 384.07499,381.21141 384.01054,381.46491 C 383.93266,381.77116 384.12164,381.95464 384.32151,382.12827 C 384.46624,382.25397 384.69842,382.21530 384.87874,382.21603 C 385.18535,382.21727 385.52474,382.19952 385.83425,382.16917 C 386.18622,382.13465 386.62955,382.16166 386.96960,382.22441 C 387.34396,382.29348 387.84901,382.34060 388.22404,382.24842 C 388.45439,382.19181 388.78686,382.20025 389.02574,382.20122 C 389.23985,382.20207 389.44794,382.13260 389.63728,382.07984 C 389.80326,382.03361 389.92927,381.99614 390.07250,381.87248 C 390.20931,381.75439 390.10979,381.59653 390.07389,381.52400 C 390.01685,381.40876 389.98741,381.20327 390.00603,381.07072"
         style="fill:#666666;fill-opacity:1.0000000;fill-rule:evenodd;stroke:#666666;stroke-width:0.034848001px;stroke-linecap:butt;stroke-linejoin:miter;stroke-opacity:1.0000000" />
    </g>
  </g>
</svg>
