<?xml version="1.0" encoding="UTF-8" standalone="no"?>
<!-- Created with Inkscape (http://www.inkscape.org/) -->
<svg
   xmlns:dc="http://purl.org/dc/elements/1.1/"
   xmlns:cc="http://web.resource.org/cc/"
   xmlns:rdf="http://www.w3.org/1999/02/22-rdf-syntax-ns#"
   xmlns:svg="http://www.w3.org/2000/svg"
   xmlns="http://www.w3.org/2000/svg"
   xmlns:sodipodi="http://inkscape.sourceforge.net/DTD/sodipodi-0.dtd"
   xmlns:inkscape="http://www.inkscape.org/namespaces/inkscape"
   width="744.09448819"
   height="1052.3622047"
   id="svg2"
   sodipodi:version="0.32"
   inkscape:version="0.42+devel"
   sodipodi:docbase="/home/niels/GOFFICE/Software/Images"
   sodipodi:docname="ali_right_collapse.svg"
   inkscape:export-filename="/home/niels/GOFFICE/Software/Images/ali_right_collapse.gif"
   inkscape:export-xdpi="90.000000"
   inkscape:export-ydpi="90.000000">
  <defs
     id="defs4" />
  <sodipodi:namedview
     id="base"
     pagecolor="#ffffff"
     bordercolor="#666666"
     borderopacity="1.0"
     inkscape:pageopacity="0.0"
     inkscape:pageshadow="2"
     inkscape:zoom="12.545313"
     inkscape:cx="405.47000"
     inkscape:cy="681.30053"
     inkscape:document-units="px"
     inkscape:current-layer="layer1"
     showgrid="true"
     inkscape:window-width="1249"
     inkscape:window-height="1036"
     inkscape:window-x="343"
     inkscape:window-y="57" />
  <metadata
     id="metadata7">
    <rdf:RDF>
      <cc:Work
         rdf:about="">
        <dc:format>image/svg+xml</dc:format>
        <dc:type
           rdf:resource="http://purl.org/dc/dcmitype/StillImage" />
      </cc:Work>
    </rdf:RDF>
  </metadata>
  <g
     inkscape:label="Layer 1"
     inkscape:groupmode="layer"
     id="layer1">
    <rect
       style="fill:#efefef;fill-opacity:1.0000000;stroke:#acacac;stroke-width:2.4758728;stroke-linecap:round;stroke-linejoin:round;stroke-miterlimit:4.0000000;stroke-dasharray:none;stroke-opacity:0.99607843"
       id="rect2037"
       width="23.820473"
       height="17.664955"
       x="-413.99020"
       y="-369.68683"
       inkscape:export-filename="/home/niels/GOFFICE/Software/Images/test.png"
       inkscape:export-xdpi="90.000000"
       inkscape:export-ydpi="90.000000"
       transform="matrix(-0.999992,-4.016033e-3,3.451069e-3,-0.999994,0.000000,0.000000)" />
    <g
       id="g1318"
       transform="matrix(-0.999999,-1.117111e-3,1.117111e-3,-0.999999,800.1418,725.1646)">
      <path
         inkscape:export-ydpi="90.000000"
         inkscape:export-xdpi="90.000000"
         inkscape:export-filename="/home/niels/GOFFICE/Software/Images/test.png"
         id="path4243"
         d="M 398.09058,358.32810 C 398.07088,365.90196 398.06926,365.90196 398.06926,365.90196 L 398.06926,365.90196"
         style="fill:none;fill-opacity:0.75000000;fill-rule:evenodd;stroke:#666666;stroke-width:2.4890883;stroke-linecap:round;stroke-linejoin:miter;stroke-miterlimit:10.200000;stroke-dasharray:none;stroke-opacity:1.0000000" />
      <path
         inkscape:export-ydpi="90.000000"
         inkscape:export-xdpi="90.000000"
         inkscape:export-filename="/home/niels/GOFFICE/Software/Images/test.png"
         id="path4249"
         d="M 397.64952,358.27818 C 393.46002,362.01874 393.45930,362.01776 393.45930,362.01776 L 393.45930,362.01776"
         style="fill:none;fill-opacity:0.75000000;fill-rule:evenodd;stroke:#666666;stroke-width:1.8470557;stroke-linecap:round;stroke-linejoin:miter;stroke-miterlimit:10.200000;stroke-dasharray:none;stroke-opacity:1.0000000" />
      <path
         inkscape:export-ydpi="90.000000"
         inkscape:export-xdpi="90.000000"
         inkscape:export-filename="/home/niels/GOFFICE/Software/Images/test.png"
         id="path4251"
         d="M 393.31113,362.28310 C 397.72723,366.09756 397.72622,366.09835 397.72622,366.09835 L 397.72622,366.09835"
         style="fill:none;fill-opacity:0.75000000;fill-rule:evenodd;stroke:#666666;stroke-width:1.9341043;stroke-linecap:round;stroke-linejoin:miter;stroke-miterlimit:10.200000;stroke-dasharray:none;stroke-opacity:1.0000000" />
      <path
         inkscape:export-ydpi="90.000000"
         inkscape:export-xdpi="90.000000"
         inkscape:export-filename="/home/niels/GOFFICE/Software/Images/test.png"
         id="path4253"
         d="M 397.47740,358.83004 C 397.38114,358.83013 397.10346,358.89374 396.91947,358.96800 C 396.69657,359.05795 396.45756,359.23228 396.29101,359.41938 C 396.02443,359.71891 395.69074,359.92350 395.41770,360.23332 C 395.22660,360.45015 395.00965,360.60039 394.80812,360.77460 C 394.68521,360.88087 394.54399,361.02502 394.43951,361.17358 C 394.30220,361.36880 394.15262,361.51909 394.05477,361.71354 C 393.97565,361.87075 393.98431,362.01158 393.98381,362.20123 C 393.98329,362.40497 394.23530,362.70512 394.40036,362.82958 C 394.61641,362.99250 394.81358,363.15966 395.06128,363.28433 C 395.26565,363.38717 395.45123,363.53292 395.65280,363.63435 C 395.84677,363.73198 396.01379,363.99811 396.17406,364.19327 C 396.31763,364.36812 396.55714,364.48280 396.74653,364.64779 C 396.95464,364.82908 397.34743,364.82985 397.60102,364.89395 C 397.90739,364.97139 398.09058,364.78215 398.26394,364.58203 C 398.38943,364.43715 398.35047,364.20502 398.35094,364.02469 C 398.35174,363.71808 398.33352,363.37871 398.30272,363.06925 C 398.26769,362.71732 398.29412,362.27396 398.35637,361.93382 C 398.42490,361.55936 398.47132,361.05425 398.37863,360.67935 C 398.32170,360.44908 398.32966,360.11660 398.33028,359.87772 C 398.33084,359.66361 398.26109,359.45561 398.20806,359.26634 C 398.16159,359.10043 398.12397,358.97447 398.00011,358.83141 C 397.88181,358.69476 397.72412,358.79450 397.65164,358.83051 C 397.53645,358.88771 397.33101,358.91744 397.19842,358.89902"
         style="fill:#666666;fill-opacity:1.0000000;fill-rule:evenodd;stroke:#666666;stroke-width:0.034848001px;stroke-linecap:butt;stroke-linejoin:miter;stroke-opacity:1.0000000" />
    </g>
    <g
       id="g1312"
       transform="matrix(-0.999999,-1.117111e-3,1.117111e-3,-0.999999,802.0847,725.2097)">
      <path
         inkscape:export-ydpi="90.000000"
         inkscape:export-xdpi="90.000000"
         inkscape:export-filename="/home/niels/GOFFICE/Software/Images/test.png"
         id="path6454"
         d="M 406.57346,358.37108 C 406.55377,365.94494 406.55214,365.94494 406.55214,365.94494 L 406.55214,365.94494"
         style="fill:none;fill-opacity:0.75000000;fill-rule:evenodd;stroke:#666666;stroke-width:2.4890883;stroke-linecap:round;stroke-linejoin:miter;stroke-miterlimit:10.200000;stroke-dasharray:none;stroke-opacity:1.0000000" />
      <path
         inkscape:export-ydpi="90.000000"
         inkscape:export-xdpi="90.000000"
         inkscape:export-filename="/home/niels/GOFFICE/Software/Images/test.png"
         id="path6456"
         d="M 406.13240,358.32116 C 401.94289,362.06171 401.94218,362.06074 401.94218,362.06074 L 401.94218,362.06074"
         style="fill:none;fill-opacity:0.75000000;fill-rule:evenodd;stroke:#666666;stroke-width:1.8470557;stroke-linecap:round;stroke-linejoin:miter;stroke-miterlimit:10.200000;stroke-dasharray:none;stroke-opacity:1.0000000" />
      <path
         inkscape:export-ydpi="90.000000"
         inkscape:export-xdpi="90.000000"
         inkscape:export-filename="/home/niels/GOFFICE/Software/Images/test.png"
         id="path6458"
         d="M 401.79401,362.32608 C 406.21012,366.14053 406.20909,366.14132 406.20909,366.14132 L 406.20909,366.14132"
         style="fill:none;fill-opacity:0.75000000;fill-rule:evenodd;stroke:#666666;stroke-width:1.9341043;stroke-linecap:round;stroke-linejoin:miter;stroke-miterlimit:10.200000;stroke-dasharray:none;stroke-opacity:1.0000000" />
      <path
         inkscape:export-filename="/home/niels/GOFFICE/Software/Images/test.png"
         inkscape:export-ydpi="90.000000"
         inkscape:export-xdpi="90.000000"
         id="path6460"
         d="M 405.73101,359.03444 C 405.63476,359.03453 405.35710,359.09813 405.17309,359.17239 C 404.95020,359.26234 404.71118,359.43667 404.54465,359.62377 C 404.27807,359.92330 403.94437,360.12789 403.67132,360.43772 C 403.48023,360.65454 403.26326,360.80478 403.06175,360.97899 C 402.93883,361.08526 402.79762,361.22941 402.69315,361.37797 C 402.55584,361.57318 402.40626,361.72348 402.30840,361.91793 C 402.22928,362.07513 402.23792,362.21598 402.23743,362.40561 C 402.23691,362.60936 402.48893,362.90951 402.65398,363.03398 C 402.87003,363.19688 403.06721,363.36406 403.31491,363.48872 C 403.51928,363.59156 403.70487,363.73731 403.90642,363.83874 C 404.10038,363.93636 404.26742,364.20250 404.42769,364.39766 C 404.57127,364.57250 404.81076,364.68718 405.00016,364.85218 C 405.20825,365.03346 405.60105,365.03424 405.85464,365.09834 C 406.16102,365.17579 406.34421,364.98654 406.51756,364.78643 C 406.64307,364.64153 406.60409,364.40941 406.60455,364.22908 C 406.60535,363.92246 406.58713,363.58311 406.55635,363.27364 C 406.52133,362.92172 406.54772,362.47835 406.60999,362.13821 C 406.67855,361.76375 406.72495,361.25864 406.63225,360.88373 C 406.57533,360.65347 406.58330,360.32099 406.58392,360.08211 C 406.58447,359.86800 406.51471,359.66000 406.46170,359.47074 C 406.41522,359.30482 406.37759,359.17886 406.25373,359.03581 C 406.13543,358.89916 405.97772,358.99890 405.90525,359.03491 C 405.79007,359.09211 405.58464,359.12182 405.45205,359.10342"
         style="fill:#666666;fill-opacity:1.0000000;fill-rule:evenodd;stroke:#666666;stroke-width:0.034848001px;stroke-linecap:butt;stroke-linejoin:miter;stroke-opacity:1.0000000" />
    </g>
  </g>
</svg>
