<?xml version="1.0" encoding="UTF-8" standalone="no"?>
<!-- Created with Inkscape (http://www.inkscape.org/) -->
<svg
   xmlns:dc="http://purl.org/dc/elements/1.1/"
   xmlns:cc="http://web.resource.org/cc/"
   xmlns:rdf="http://www.w3.org/1999/02/22-rdf-syntax-ns#"
   xmlns:svg="http://www.w3.org/2000/svg"
   xmlns="http://www.w3.org/2000/svg"
   xmlns:sodipodi="http://inkscape.sourceforge.net/DTD/sodipodi-0.dtd"
   xmlns:inkscape="http://www.inkscape.org/namespaces/inkscape"
   width="744.09448819"
   height="1052.3622047"
   id="svg2"
   sodipodi:version="0.32"
   inkscape:version="0.42+devel"
   sodipodi:docbase="/home/niels/GOFFICE/Software/Images"
   sodipodi:docname="ali_lower.svg"
   inkscape:export-filename="/home/niels/GOFFICE/Software/Images/ali_taller.png"
   inkscape:export-xdpi="90.000000"
   inkscape:export-ydpi="90.000000">
  <defs
     id="defs4" />
  <sodipodi:namedview
     id="base"
     pagecolor="#ffffff"
     bordercolor="#666666"
     borderopacity="1.0"
     inkscape:pageopacity="0.0"
     inkscape:pageshadow="2"
     inkscape:zoom="12.545313"
     inkscape:cx="405.47000"
     inkscape:cy="681.30053"
     inkscape:document-units="px"
     inkscape:current-layer="layer1"
     showgrid="false"
     inkscape:window-width="1249"
     inkscape:window-height="1036"
     inkscape:window-x="161"
     inkscape:window-y="0" />
  <metadata
     id="metadata7">
    <rdf:RDF>
      <cc:Work
         rdf:about="">
        <dc:format>image/svg+xml</dc:format>
        <dc:type
           rdf:resource="http://purl.org/dc/dcmitype/StillImage" />
      </cc:Work>
    </rdf:RDF>
  </metadata>
  <g
     inkscape:label="Layer 1"
     inkscape:groupmode="layer"
     id="layer1">
    <rect
       style="fill:#efefef;fill-opacity:1.0000000;stroke:#acacac;stroke-width:2.5887537;stroke-linecap:round;stroke-linejoin:round;stroke-miterlimit:4.0000000;stroke-dasharray:none;stroke-opacity:0.99607843"
       id="rect2037"
       width="18.485502"
       height="17.475973"
       x="354.90698"
       y="-405.57602"
       inkscape:export-filename="/home/niels/GOFFICE/Software/Images/test.png"
       inkscape:export-xdpi="90.000000"
       inkscape:export-ydpi="90.000000"
       transform="matrix(1.706425e-3,0.999999,-0.999994,3.385252e-3,0.000000,0.000000)" />
    <g
       id="g3713"
       transform="matrix(-3.878587e-3,-0.582805,1.040881,-6.927091e-3,21.31234,593.8239)">
      <path
         inkscape:export-ydpi="90.000000"
         inkscape:export-xdpi="90.000000"
         inkscape:export-filename="/home/niels/GOFFICE/Software/Images/test.png"
         id="path6454"
         d="M 398.66777,359.01834 C 398.66742,366.59225 398.66579,366.59224 398.66579,366.59224 L 398.66579,366.59224"
         style="fill:none;fill-opacity:0.75000000;fill-rule:evenodd;stroke:#666666;stroke-width:2.4890883;stroke-linecap:round;stroke-linejoin:miter;stroke-miterlimit:10.200000;stroke-dasharray:none;stroke-opacity:1.0000000" />
      <path
         inkscape:export-ydpi="90.000000"
         inkscape:export-xdpi="90.000000"
         inkscape:export-filename="/home/niels/GOFFICE/Software/Images/test.png"
         id="path6456"
         d="M 398.22657,358.96956 C 394.04665,362.72082 394.04593,362.71985 394.04593,362.71985 L 394.04593,362.71985"
         style="fill:none;fill-opacity:0.75000000;fill-rule:evenodd;stroke:#666666;stroke-width:1.8470557;stroke-linecap:round;stroke-linejoin:miter;stroke-miterlimit:10.200000;stroke-dasharray:none;stroke-opacity:1.0000000" />
      <path
         inkscape:export-ydpi="90.000000"
         inkscape:export-xdpi="90.000000"
         inkscape:export-filename="/home/niels/GOFFICE/Software/Images/test.png"
         id="path6458"
         d="M 393.89844,362.98557 C 398.32428,366.78871 398.32327,366.78951 398.32327,366.78951 L 398.32327,366.78951"
         style="fill:none;fill-opacity:0.75000000;fill-rule:evenodd;stroke:#666666;stroke-width:1.9341043;stroke-linecap:round;stroke-linejoin:miter;stroke-miterlimit:10.200000;stroke-dasharray:none;stroke-opacity:1.0000000" />
      <path
         inkscape:export-filename="/home/niels/GOFFICE/Software/Images/test.png"
         inkscape:export-ydpi="90.000000"
         inkscape:export-xdpi="90.000000"
         id="path6460"
         d="M 397.82700,359.68388 C 397.73074,359.68420 397.45326,359.74851 397.26945,359.82325 C 397.04677,359.91376 396.80821,360.08870 396.64215,360.27623 C 396.37634,360.57642 396.04316,360.78188 395.77092,361.09240 C 395.58038,361.30973 395.36379,361.46051 395.16273,361.63523 C 395.04008,361.74183 394.89925,361.88633 394.79513,362.03516 C 394.65833,362.23072 394.50915,362.38140 394.41178,362.57610 C 394.33307,362.73350 394.34207,362.87433 394.34207,363.06397 C 394.34206,363.26772 394.59485,363.56722 394.76021,363.69126 C 394.97669,363.85361 395.17428,364.02029 395.42231,364.14430 C 395.62693,364.24662 395.81289,364.39190 396.01471,364.49282 C 396.20893,364.58992 396.37664,364.85564 396.53740,365.05041 C 396.68143,365.22487 396.92123,365.33894 397.11103,365.50344 C 397.31960,365.68421 397.71240,365.68398 397.96615,365.74742 C 398.27271,365.82410 398.45543,365.63439 398.62827,365.43383 C 398.75340,365.28861 398.71381,365.05658 398.71383,364.87626 C 398.71385,364.56964 398.69476,364.23033 398.66319,363.92094 C 398.62727,363.56912 398.65253,363.12568 398.71393,362.78538 C 398.78152,362.41075 398.82664,361.90552 398.73298,361.53086 C 398.67546,361.30073 398.68258,360.96823 398.68260,360.72935 C 398.68261,360.51524 398.61231,360.30743 398.55880,360.11829 C 398.51191,359.95250 398.47395,359.82664 398.34972,359.68390 C 398.23109,359.54755 398.07363,359.64770 398.00124,359.68389 C 397.88622,359.74138 397.68086,359.77163 397.54823,359.75354"
         style="fill:#666666;fill-opacity:1.0000000;fill-rule:evenodd;stroke:#666666;stroke-width:0.034848001px;stroke-linecap:butt;stroke-linejoin:miter;stroke-opacity:1.0000000" />
    </g>
    <g
       id="g1309"
       transform="matrix(2.191805e-3,0.582813,-1.040897,3.914524e-3,774.3440,132.9456)">
      <path
         inkscape:export-ydpi="90.000000"
         inkscape:export-xdpi="90.000000"
         inkscape:export-filename="/home/niels/GOFFICE/Software/Images/test.png"
         id="path1311"
         d="M 398.66777,359.01834 C 398.66742,366.59225 398.66579,366.59224 398.66579,366.59224 L 398.66579,366.59224"
         style="fill:none;fill-opacity:0.75000000;fill-rule:evenodd;stroke:#666666;stroke-width:2.4890883;stroke-linecap:round;stroke-linejoin:miter;stroke-miterlimit:10.200000;stroke-dasharray:none;stroke-opacity:1.0000000" />
      <path
         inkscape:export-ydpi="90.000000"
         inkscape:export-xdpi="90.000000"
         inkscape:export-filename="/home/niels/GOFFICE/Software/Images/test.png"
         id="path1313"
         d="M 398.22657,358.96956 C 394.04665,362.72082 394.04593,362.71985 394.04593,362.71985 L 394.04593,362.71985"
         style="fill:none;fill-opacity:0.75000000;fill-rule:evenodd;stroke:#666666;stroke-width:1.8470557;stroke-linecap:round;stroke-linejoin:miter;stroke-miterlimit:10.200000;stroke-dasharray:none;stroke-opacity:1.0000000" />
      <path
         inkscape:export-ydpi="90.000000"
         inkscape:export-xdpi="90.000000"
         inkscape:export-filename="/home/niels/GOFFICE/Software/Images/test.png"
         id="path1315"
         d="M 393.89844,362.98557 C 398.32428,366.78871 398.32327,366.78951 398.32327,366.78951 L 398.32327,366.78951"
         style="fill:none;fill-opacity:0.75000000;fill-rule:evenodd;stroke:#666666;stroke-width:1.9341043;stroke-linecap:round;stroke-linejoin:miter;stroke-miterlimit:10.200000;stroke-dasharray:none;stroke-opacity:1.0000000" />
      <path
         inkscape:export-filename="/home/niels/GOFFICE/Software/Images/test.png"
         inkscape:export-ydpi="90.000000"
         inkscape:export-xdpi="90.000000"
         id="path1317"
         d="M 397.82700,359.68388 C 397.73074,359.68420 397.45326,359.74851 397.26945,359.82325 C 397.04677,359.91376 396.80821,360.08870 396.64215,360.27623 C 396.37634,360.57642 396.04316,360.78188 395.77092,361.09240 C 395.58038,361.30973 395.36379,361.46051 395.16273,361.63523 C 395.04008,361.74183 394.89925,361.88633 394.79513,362.03516 C 394.65833,362.23072 394.50915,362.38140 394.41178,362.57610 C 394.33307,362.73350 394.34207,362.87433 394.34207,363.06397 C 394.34206,363.26772 394.59485,363.56722 394.76021,363.69126 C 394.97669,363.85361 395.17428,364.02029 395.42231,364.14430 C 395.62693,364.24662 395.81289,364.39190 396.01471,364.49282 C 396.20893,364.58992 396.37664,364.85564 396.53740,365.05041 C 396.68143,365.22487 396.92123,365.33894 397.11103,365.50344 C 397.31960,365.68421 397.71240,365.68398 397.96615,365.74742 C 398.27271,365.82410 398.45543,365.63439 398.62827,365.43383 C 398.75340,365.28861 398.71381,365.05658 398.71383,364.87626 C 398.71385,364.56964 398.69476,364.23033 398.66319,363.92094 C 398.62727,363.56912 398.65253,363.12568 398.71393,362.78538 C 398.78152,362.41075 398.82664,361.90552 398.73298,361.53086 C 398.67546,361.30073 398.68258,360.96823 398.68260,360.72935 C 398.68261,360.51524 398.61231,360.30743 398.55880,360.11829 C 398.51191,359.95250 398.47395,359.82664 398.34972,359.68390 C 398.23109,359.54755 398.07363,359.64770 398.00124,359.68389 C 397.88622,359.74138 397.68086,359.77163 397.54823,359.75354"
         style="fill:#666666;fill-opacity:1.0000000;fill-rule:evenodd;stroke:#666666;stroke-width:0.034848001px;stroke-linecap:butt;stroke-linejoin:miter;stroke-opacity:1.0000000" />
    </g>
  </g>
</svg>
