<?xml version="1.0" encoding="UTF-8" standalone="no"?>
<!-- Created with Inkscape (http://www.inkscape.org/) -->
<svg
   xmlns:dc="http://purl.org/dc/elements/1.1/"
   xmlns:cc="http://web.resource.org/cc/"
   xmlns:rdf="http://www.w3.org/1999/02/22-rdf-syntax-ns#"
   xmlns:svg="http://www.w3.org/2000/svg"
   xmlns="http://www.w3.org/2000/svg"
   xmlns:sodipodi="http://inkscape.sourceforge.net/DTD/sodipodi-0.dtd"
   xmlns:inkscape="http://www.inkscape.org/namespaces/inkscape"
   width="744.09448819"
   height="1052.3622047"
   id="svg2"
   sodipodi:version="0.32"
   inkscape:version="0.42+devel"
   sodipodi:docbase="/home/niels/GOFFICE/Software/Images"
   sodipodi:docname="ali_down.svg"
   inkscape:export-filename="/home/niels/GOFFICE/Software/Images/ali_up.png"
   inkscape:export-xdpi="90.000000"
   inkscape:export-ydpi="90.000000">
  <defs
     id="defs4" />
  <sodipodi:namedview
     id="base"
     pagecolor="#ffffff"
     bordercolor="#666666"
     borderopacity="1.0"
     inkscape:pageopacity="0.0"
     inkscape:pageshadow="2"
     inkscape:zoom="12.545313"
     inkscape:cx="405.47000"
     inkscape:cy="681.30053"
     inkscape:document-units="px"
     inkscape:current-layer="layer1"
     showgrid="false"
     inkscape:window-width="1249"
     inkscape:window-height="1036"
     inkscape:window-x="343"
     inkscape:window-y="57" />
  <metadata
     id="metadata7">
    <rdf:RDF>
      <cc:Work
         rdf:about="">
        <dc:format>image/svg+xml</dc:format>
        <dc:type
           rdf:resource="http://purl.org/dc/dcmitype/StillImage" />
      </cc:Work>
    </rdf:RDF>
  </metadata>
  <g
     inkscape:label="Layer 1"
     inkscape:groupmode="layer"
     id="layer1">
    <rect
       style="fill:#efefef;fill-opacity:1.0000000;stroke:#acacac;stroke-width:2.5691464;stroke-linecap:round;stroke-linejoin:round;stroke-miterlimit:4.0000000;stroke-dasharray:none;stroke-opacity:0.99607843"
       id="rect2037"
       width="18.206579"
       height="17.475939"
       x="-372.79562"
       y="387.98578"
       inkscape:export-filename="/home/niels/GOFFICE/Software/Images/test.png"
       inkscape:export-xdpi="90.000000"
       inkscape:export-ydpi="90.000000"
       transform="matrix(-1.859273e-3,-0.999998,0.999993,-3.664914e-3,0.000000,0.000000)" />
    <g
       id="g5114"
       transform="matrix(-0.999976,6.939448e-3,-6.939448e-3,-0.999976,797.2988,721.7090)">
      <path
         inkscape:export-ydpi="90.000000"
         inkscape:export-xdpi="90.000000"
         inkscape:export-filename="/home/niels/GOFFICE/Software/Images/test.png"
         id="path6454"
         d="M 401.32935,364.00987 C 393.75551,363.97954 393.75553,363.97791 393.75553,363.97791 L 393.75553,363.97791"
         style="fill:none;fill-opacity:0.75000000;fill-rule:evenodd;stroke:#666666;stroke-width:2.4890883;stroke-linecap:round;stroke-linejoin:miter;stroke-miterlimit:10.200000;stroke-dasharray:none;stroke-opacity:1.0000000" />
      <path
         inkscape:export-ydpi="90.000000"
         inkscape:export-xdpi="90.000000"
         inkscape:export-filename="/home/niels/GOFFICE/Software/Images/test.png"
         id="path6456"
         d="M 401.37988,363.56887 C 397.64520,359.37413 397.64617,359.37341 397.64617,359.37341 L 397.64617,359.37341"
         style="fill:none;fill-opacity:0.75000000;fill-rule:evenodd;stroke:#666666;stroke-width:1.8470557;stroke-linecap:round;stroke-linejoin:miter;stroke-miterlimit:10.200000;stroke-dasharray:none;stroke-opacity:1.0000000" />
      <path
         inkscape:export-ydpi="90.000000"
         inkscape:export-xdpi="90.000000"
         inkscape:export-filename="/home/niels/GOFFICE/Software/Images/test.png"
         id="path6458"
         d="M 397.38103,359.22487 C 393.56041,363.63562 393.55961,363.63461 393.55961,363.63461 L 393.55961,363.63461"
         style="fill:none;fill-opacity:0.75000000;fill-rule:evenodd;stroke:#666666;stroke-width:1.9341043;stroke-linecap:round;stroke-linejoin:miter;stroke-miterlimit:10.200000;stroke-dasharray:none;stroke-opacity:1.0000000" />
      <path
         inkscape:export-filename="/home/niels/GOFFICE/Software/Images/test.png"
         inkscape:export-ydpi="90.000000"
         inkscape:export-xdpi="90.000000"
         id="path6460"
         d="M 400.66715,363.16648 C 400.66721,363.07021 400.60400,362.79247 400.52999,362.60837 C 400.44036,362.38534 400.26637,362.14609 400.07950,361.97929 C 399.78036,361.71229 399.57622,361.37830 399.26678,361.10483 C 399.05021,360.91343 398.90028,360.69625 398.72636,360.49449 C 398.62025,360.37143 398.47630,360.23003 398.32789,360.12532 C 398.13287,359.98774 397.98278,359.83797 397.78846,359.73983 C 397.63138,359.66050 397.49052,359.66894 397.30088,359.66819 C 397.09713,359.66737 396.79664,359.91898 396.67194,360.08384 C 396.50873,360.29968 396.34127,360.49661 396.21628,360.74414 C 396.11315,360.94836 395.96714,361.13374 395.86542,361.33516 C 395.76755,361.52900 395.50117,361.69565 395.30576,361.85564 C 395.13074,361.99898 395.01572,362.23832 394.85046,362.42747 C 394.66888,362.63532 394.66755,363.02812 394.60310,363.28162 C 394.52522,363.58787 394.71420,363.77135 394.91407,363.94498 C 395.05880,364.07068 395.29098,364.03201 395.47130,364.03274 C 395.77791,364.03398 396.11730,364.01623 396.42681,363.98588 C 396.77878,363.95136 397.22211,363.97837 397.56216,364.04112 C 397.93652,364.11019 398.44157,364.15731 398.81660,364.06513 C 399.04695,364.00852 399.37942,364.01696 399.61830,364.01793 C 399.83241,364.01878 400.04050,363.94931 400.22984,363.89655 C 400.39582,363.85032 400.52183,363.81285 400.66506,363.68919 C 400.80187,363.57110 400.70235,363.41324 400.66645,363.34071 C 400.60941,363.22547 400.57997,363.01998 400.59859,362.88743"
         style="fill:#666666;fill-opacity:1.0000000;fill-rule:evenodd;stroke:#666666;stroke-width:0.034848001px;stroke-linecap:butt;stroke-linejoin:miter;stroke-opacity:1.0000000" />
    </g>
  </g>
</svg>
